<svg xmlns="http://www.w3.org/2000/svg" viewBox="0 0 32 32">
  <rect width="32" height="32" rx="6" fill="#1d4ed8"/>
  <g transform="translate(6,7) scale(0.0390625)" fill="white">
    <path d="M0 400c0 8.8 7.2 16 16 16l480 0c8.8 0 16-7.2 16-16s-7.2-16-16-16L32 384l0-352c0-8.8-7.2-16-16-16S0 23.2 0 32L0 400zM24 328.9c5.9 6.6 16 7.1 22.6 1.2L152 235.8l76.8 57.6c4.5 3.4 10.5 4 15.6 1.5l192-96c8-4 11.3-13.8 7.3-21.8s-13.8-11.3-21.8-7.3L236 262.3l-76.8-57.6c-5-3.7-11.6-4.1-17-1L25.2 306.2c-6.6 5.9-7.2 16-1.2 22.6z"/>
  </g>
</svg>
